<svg width="20" height="20" viewBox="0 0 20 20" fill="none" xmlns="http://www.w3.org/2000/svg">
<path fill-rule="evenodd" clip-rule="evenodd" d="M11.2929 2.29254C13.0641 0.521302 15.9359 0.521302 17.7071 2.29254C19.4784 4.06377 19.4784 6.93552 17.7071 8.70675L13.7105 12.7034C12.8644 13.5648 11.7076 14.0502 10.5 14.0502C9.29062 14.0502 8.13213 13.5634 7.28573 12.6995C6.89921 12.305 6.90567 11.6719 7.30016 11.2854C7.69465 10.8988 8.32778 10.9053 8.7143 11.2998C9.18452 11.7797 9.82812 12.0502 10.5 12.0502C11.1719 12.0502 11.8155 11.7797 12.2857 11.2998L12.2929 11.2925L12.2929 11.2925L16.2929 7.29254C17.2831 6.30235 17.2831 4.69694 16.2929 3.70675C15.3027 2.71656 13.6973 2.71656 12.7071 3.70675L12.2071 4.20675C11.8166 4.59728 11.1834 4.59728 10.7929 4.20675C10.4024 3.81623 10.4024 3.18306 10.7929 2.79254L11.2929 2.29254ZM6.28949 7.29596C7.13555 6.4345 8.29241 5.94913 9.50001 5.94913C10.7094 5.94913 11.8679 6.43594 12.7143 7.29979C13.1008 7.69428 13.0944 8.32741 12.6999 8.71393C12.3054 9.10045 11.6722 9.09399 11.2857 8.6995C10.8155 8.21958 10.1719 7.94913 9.50001 7.94913C8.82813 7.94913 8.18452 8.21958 7.7143 8.6995L7.70716 8.70679L7.70712 8.70675L3.70712 12.7068C2.71693 13.6969 2.71693 15.3024 3.70712 16.2925C4.69731 17.2827 6.30272 17.2827 7.2929 16.2925L7.7929 15.7925C8.18343 15.402 8.81659 15.402 9.20712 15.7925C9.59764 16.1831 9.59764 16.8162 9.20712 17.2068L8.70712 17.7068C6.93588 19.478 4.06414 19.478 2.2929 17.7068C0.521668 15.9355 0.521668 13.0638 2.2929 11.2925L6.28949 7.29596Z" fill="#026596"/>
</svg>
